<svg width="23" height="42" viewBox="0 0 23 42" fill="none" xmlns="http://www.w3.org/2000/svg">
<path d="M4.88498 25.0039L9.57134 14.2101H11.1435V17.2638L7.81774 25.0039H10.297V23.6131C10.297 23.2745 10.8613 23.2503 11.1435 23.2805V27.5436C10.3695 27.5436 10.2567 27.2815 10.297 27.1505V25.9411H7.36422L0.107926 42.1469H-0.164185L1.68012 36.5535C1.68012 36.5535 0.0474573 35.9186 0.591679 34.558C1.1359 33.1974 4.40123 25.9411 4.40123 25.9411H0.591679V25.0039H4.88498Z" fill="#FF9900"/>
<path d="M17.0997 25.0039L12.4134 14.2101H10.8412V17.2638L14.167 25.0039H11.6878V23.6131C11.6878 23.2745 11.1234 23.2503 10.8412 23.2805V27.5436C11.6152 27.5436 11.7281 27.2815 11.6878 27.1505V25.9411H14.6205L21.8768 42.1469H22.1489L20.3046 36.5535C20.3046 36.5535 21.9373 35.9186 21.393 34.558C20.8488 33.1974 17.5835 25.9411 17.5835 25.9411H21.393V25.0039H17.0997Z" fill="#FF9900"/>
<path fill-rule="evenodd" clip-rule="evenodd" d="M11.0228 12.638C12.7928 12.638 14.2277 11.2032 14.2277 9.43318C14.2277 7.66318 12.7928 6.22832 11.0228 6.22832C9.2528 6.22832 7.81793 7.66318 7.81793 9.43318C7.81793 11.2032 9.2528 12.638 11.0228 12.638ZM11.0228 14.3916C13.7613 14.3916 15.9813 12.1717 15.9813 9.43318C15.9813 6.69469 13.7613 4.47471 11.0228 4.47471C8.28431 4.47471 6.06433 6.69469 6.06433 9.43318C6.06433 12.1717 8.28431 14.3916 11.0228 14.3916Z" fill="white"/>
<path d="M10.1158 0H11.9298V4.77706H10.1158V0Z" fill="white"/>
</svg>
