<svg width="102" height="26" viewBox="0 0 102 26" fill="none" xmlns="http://www.w3.org/2000/svg">
<path d="M11.7062 12.2434C11.0618 12.6133 10.2802 12.9057 9.36142 13.1205C8.44261 13.3353 7.488 13.4427 6.4976 13.4427C5.16115 13.4427 4.02159 13.2816 3.07892 12.9594C2.14818 12.6372 1.44416 12.1897 0.966854 11.617C0.501484 11.0442 0.268799 10.382 0.268799 9.6302C0.268799 8.97391 0.447787 8.39518 0.805764 7.89401C1.16374 7.39285 1.65894 7.00504 2.29137 6.73059C1.80213 6.48 1.42626 6.13396 1.16374 5.69245C0.913158 5.23902 0.787866 4.74381 0.787866 4.20685C0.787866 3.51476 1.00265 2.88233 1.43222 2.30957C1.87373 1.73681 2.54195 1.2774 3.4369 0.931359C4.33184 0.585315 5.4356 0.412292 6.74818 0.412292C7.57153 0.412292 8.38295 0.489854 9.18243 0.644978C9.98191 0.800101 10.6859 1.00892 11.2945 1.27144L10.328 3.92047C9.21823 3.43123 8.0727 3.18661 6.89138 3.18661C6.04416 3.18661 5.41174 3.29997 4.9941 3.52669C4.57646 3.74148 4.36764 4.04576 4.36764 4.43953C4.36764 5.15549 4.8867 5.51347 5.92484 5.51347H9.46881V8.21619H5.69215C5.08359 8.21619 4.62419 8.31762 4.31394 8.52047C4.00369 8.71139 3.84857 8.99778 3.84857 9.37962C3.84857 9.78533 4.07529 10.1015 4.52873 10.3283C4.98216 10.555 5.68619 10.6683 6.64079 10.6683C7.32095 10.6683 8.019 10.5788 8.73496 10.3999C9.46284 10.2089 10.0953 9.95238 10.6322 9.6302L11.7062 12.2434Z" fill="white"/>
<path d="M20.8286 8.1088C21.9383 8.47871 22.4932 9.24239 22.4932 10.3999C22.4932 11.2709 22.1531 11.9571 21.4729 12.4582C20.7928 12.9475 19.7904 13.1921 18.4659 13.1921H13.0068V3.4909H18.2153C19.4802 3.4909 20.4587 3.71165 21.1507 4.15315C21.8548 4.59466 22.2068 5.21515 22.2068 6.01463C22.2068 6.48 22.0875 6.89168 21.8488 7.24965C21.6102 7.60763 21.2701 7.89401 20.8286 8.1088ZM16.0496 7.39285H17.9111C18.6986 7.39285 19.0924 7.1005 19.0924 6.5158C19.0924 5.95497 18.6986 5.67456 17.9111 5.67456H16.0496V7.39285ZM18.1616 10.9905C18.985 10.9905 19.3967 10.6922 19.3967 10.0956C19.3967 9.49894 18.9969 9.20063 18.1974 9.20063H16.0496V10.9905H18.1616Z" fill="white"/>
<path d="M28.7573 9.7376H27.6118V13.1921H24.211V3.4909H27.6118V7.07067H28.8289L31.2095 3.4909H34.8072L31.5496 8.1446L35.0219 13.1921H31.0126L28.7573 9.7376Z" fill="white"/>
<path d="M46.0296 3.4909V13.1921H42.6288V6.19362H40.1767L40.1051 7.67923C40.0573 8.94408 39.9321 9.98818 39.7292 10.8115C39.5263 11.6349 39.1922 12.2792 38.7269 12.7446C38.2615 13.198 37.6231 13.4248 36.8117 13.4248C36.394 13.4248 35.8451 13.3472 35.165 13.1921L35.3082 10.4178C35.523 10.4416 35.6662 10.4535 35.7378 10.4535C36.1077 10.4535 36.3881 10.3342 36.579 10.0956C36.7699 9.85692 36.9012 9.54071 36.9728 9.14693C37.0444 8.74123 37.0921 8.20426 37.116 7.53604L37.2592 3.4909H46.0296Z" fill="white"/>
<path d="M58.3026 3.4909V13.1921H55.0629V12.1718C54.7049 12.5537 54.2754 12.846 53.7742 13.0489C53.285 13.2517 52.7599 13.3532 52.1991 13.3532C50.9343 13.3532 49.926 12.9833 49.1742 12.2434C48.4344 11.5036 48.0645 10.3939 48.0645 8.91425V3.4909H51.4653V8.35938C51.4653 9.75549 52.0082 10.4535 53.0941 10.4535C53.631 10.4535 54.0666 10.2686 54.4007 9.89868C54.7348 9.51684 54.9018 8.93811 54.9018 8.1625V3.4909H58.3026Z" fill="white"/>
<path d="M70.9132 3.4909V11.4201C70.9132 13.2219 70.424 14.5703 69.4455 15.4652C68.467 16.3721 67.059 16.8255 65.2214 16.8255C64.2668 16.8255 63.3718 16.7181 62.5365 16.5034C61.7013 16.2886 60.9913 15.9724 60.4066 15.5547L61.6416 13.1742C62.0354 13.4964 62.5306 13.7469 63.1272 13.9259C63.7358 14.1168 64.3324 14.2123 64.9171 14.2123C65.812 14.2123 66.4683 14.0154 66.886 13.6216C67.3036 13.2279 67.5124 12.6432 67.5124 11.8676V11.5454C66.8561 12.3091 65.8956 12.6909 64.6307 12.6909C63.7716 12.6909 62.978 12.5 62.2502 12.1181C61.5223 11.7244 60.9435 11.1755 60.514 10.4714C60.0844 9.75549 59.8696 8.93215 59.8696 8.00141C59.8696 7.0826 60.0844 6.27118 60.514 5.56716C60.9435 4.85121 61.5223 4.30231 62.2502 3.92047C62.978 3.52669 63.7716 3.32981 64.6307 3.32981C66.0149 3.32981 67.0291 3.77728 67.6735 4.67222V3.4909H70.9132ZM65.4361 9.98818C66.0447 9.98818 66.5459 9.80322 66.9397 9.43331C67.3454 9.06341 67.5482 8.5861 67.5482 8.00141C67.5482 7.41671 67.3513 6.94537 66.9576 6.5874C66.5638 6.21749 66.0566 6.03253 65.4361 6.03253C64.8157 6.03253 64.3026 6.21749 63.8969 6.5874C63.5031 6.94537 63.3062 7.41671 63.3062 8.00141C63.3062 8.5861 63.509 9.06341 63.9147 9.43331C64.3205 9.80322 64.8276 9.98818 65.4361 9.98818Z" fill="white"/>
<path d="M5.78648 17.9329V23.7742H4.15092V19.243H1.93122V23.7742H0.303992V17.9329H5.78648Z" fill="white"/>
<path d="M9.36338 19.1762C9.8585 19.1762 10.2896 19.2708 10.6568 19.4599C11.024 19.6491 11.3049 19.9217 11.4996 20.2777C11.6999 20.6282 11.8 21.0399 11.8 21.5127C11.8 21.98 11.7082 22.3917 11.5247 22.7478C11.3411 23.0982 11.0824 23.3708 10.7486 23.5655C10.4148 23.7547 10.0282 23.8493 9.58868 23.8493C9.07131 23.8493 8.6652 23.6907 8.37035 23.3736V25.393H6.78485V21.5294C6.78485 21.0621 6.89055 20.6505 7.10195 20.2944C7.31335 19.9384 7.61376 19.663 8.00318 19.4683C8.39261 19.2736 8.846 19.1762 9.36338 19.1762ZM9.28827 22.5892C9.572 22.5892 9.80008 22.4919 9.97254 22.2971C10.1506 22.0969 10.2396 21.8354 10.2396 21.5127C10.2396 21.1901 10.1506 20.9314 9.97254 20.7367C9.80008 20.5364 9.572 20.4363 9.28827 20.4363C9.00455 20.4363 8.77646 20.5364 8.60401 20.7367C8.43155 20.9314 8.34532 21.1901 8.34532 21.5127C8.34532 21.841 8.42877 22.1024 8.59566 22.2971C8.76812 22.4919 8.99899 22.5892 9.28827 22.5892Z" fill="white"/>
<path d="M14.7944 23.8493C14.3104 23.8493 13.8737 23.7491 13.4842 23.5489C13.0948 23.3486 12.7888 23.0704 12.5663 22.7144C12.3494 22.3583 12.2409 21.955 12.2409 21.5044C12.2409 21.0593 12.3494 20.6588 12.5663 20.3028C12.7888 19.9467 13.092 19.6713 13.4759 19.4766C13.8653 19.2764 14.3048 19.1762 14.7944 19.1762C15.2839 19.1762 15.7234 19.2764 16.1128 19.4766C16.5023 19.6713 16.8054 19.9467 17.0224 20.3028C17.2394 20.6532 17.3479 21.0538 17.3479 21.5044C17.3479 21.955 17.2394 22.3583 17.0224 22.7144C16.8054 23.0704 16.5023 23.3486 16.1128 23.5489C15.7234 23.7491 15.2839 23.8493 14.7944 23.8493ZM14.7944 22.5892C15.0725 22.5892 15.3006 22.4946 15.4786 22.3055C15.6567 22.1108 15.7457 21.8438 15.7457 21.5044C15.7457 21.1706 15.6567 20.9091 15.4786 20.72C15.3006 20.5308 15.0725 20.4363 14.7944 20.4363C14.5162 20.4363 14.2881 20.5308 14.1101 20.72C13.9321 20.9091 13.8431 21.1706 13.8431 21.5044C13.8431 21.8438 13.9321 22.1108 14.1101 22.3055C14.2881 22.4946 14.5162 22.5892 14.7944 22.5892Z" fill="white"/>
<path d="M20.4864 22.6393C20.7034 22.6393 20.8897 22.6087 21.0455 22.5475C21.2068 22.4863 21.3681 22.3862 21.5295 22.2471L22.3556 23.1149C21.9272 23.6045 21.2875 23.8493 20.4363 23.8493C19.9078 23.8493 19.4433 23.7491 19.0427 23.5489C18.6422 23.3486 18.3307 23.0704 18.1081 22.7144C17.8912 22.3583 17.7827 21.955 17.7827 21.5044C17.7827 21.0593 17.8912 20.6616 18.1081 20.3111C18.3251 19.9551 18.6227 19.6769 19.001 19.4766C19.3849 19.2764 19.8132 19.1762 20.2861 19.1762C20.7256 19.1762 21.1262 19.268 21.4878 19.4516C21.8549 19.6296 22.147 19.8939 22.364 20.2443C22.5809 20.5893 22.6894 21.0009 22.6894 21.4794L19.46 22.0969C19.6324 22.4585 19.9746 22.6393 20.4864 22.6393ZM20.2945 20.3028C20.0219 20.3028 19.7993 20.389 19.6269 20.5614C19.4544 20.7283 19.3571 20.9703 19.3348 21.2874L21.1707 20.9286C21.115 20.7395 21.0093 20.5893 20.8536 20.478C20.6978 20.3612 20.5114 20.3028 20.2945 20.3028Z" fill="white"/>
<path d="M25.565 22.1636H25.0309V23.7742H23.4454V19.2513H25.0309V20.9203H25.5984L26.7082 19.2513H28.3855L26.8668 21.4209L28.4857 23.7742H26.6164L25.565 22.1636Z" fill="white"/>
<path d="M34.9027 19.1762C35.459 19.1762 35.9013 19.3431 36.2295 19.6769C36.5633 20.0107 36.7302 20.5142 36.7302 21.1873V23.7742H35.1447V21.446C35.1447 21.1289 35.0835 20.8952 34.9611 20.745C34.8443 20.5948 34.6774 20.5197 34.4604 20.5197C34.2212 20.5197 34.0293 20.6032 33.8846 20.7701C33.74 20.937 33.6677 21.1901 33.6677 21.5294V23.7742H32.0822V21.446C32.0822 20.8285 31.8541 20.5197 31.3979 20.5197C31.1531 20.5197 30.9584 20.6032 30.8138 20.7701C30.6691 20.937 30.5968 21.1901 30.5968 21.5294V23.7742H29.0113V19.2513H30.5217V19.727C30.6886 19.5434 30.8861 19.4071 31.1142 19.3181C31.3478 19.2235 31.601 19.1762 31.8736 19.1762C32.1907 19.1762 32.4744 19.2346 32.7247 19.3515C32.9751 19.4683 33.1781 19.6463 33.3339 19.8855C33.5119 19.6574 33.7372 19.4822 34.0098 19.3598C34.2824 19.2374 34.58 19.1762 34.9027 19.1762Z" fill="white"/>
<path d="M37.6902 19.2513H39.2673V20.9286H40.8946V19.2513H42.48V23.7742H40.8946V22.1887H39.2673V23.7742H37.6902V19.2513Z" fill="white"/>
<path d="M45.7024 23.9077C44.2059 23.9077 43.4576 23.2651 43.4576 21.98V19.2513H45.0348V20.6866C45.1516 20.6087 45.3074 20.5448 45.5021 20.4947C45.7024 20.4446 45.9304 20.4196 46.1863 20.4196C46.7427 20.4196 47.1794 20.5614 47.4965 20.8452C47.8136 21.1233 47.9721 21.5378 47.9721 22.0885C47.9721 22.6838 47.7663 23.1372 47.3546 23.4487C46.9485 23.7547 46.3978 23.9077 45.7024 23.9077ZM48.3476 19.2513H49.9331V23.7742H48.3476V19.2513ZM45.7024 22.8229C45.9193 22.8229 46.0834 22.7589 46.1947 22.6309C46.306 22.503 46.3616 22.3333 46.3616 22.1219C46.3616 21.9161 46.306 21.7547 46.1947 21.6379C46.0834 21.5211 45.9221 21.4627 45.7107 21.4627C45.5605 21.4627 45.427 21.4905 45.3102 21.5461C45.1933 21.6018 45.1015 21.6769 45.0348 21.7714V22.1219C45.0348 22.3389 45.0904 22.5113 45.2017 22.6393C45.3129 22.7617 45.4798 22.8229 45.7024 22.8229Z" fill="white"/>
<path d="M53.3927 22.6393C53.6096 22.6393 53.796 22.6087 53.9518 22.5475C54.1131 22.4863 54.2744 22.3862 54.4358 22.2471L55.2619 23.1149C54.8335 23.6045 54.1938 23.8493 53.3426 23.8493C52.8141 23.8493 52.3496 23.7491 51.949 23.5489C51.5485 23.3486 51.237 23.0704 51.0144 22.7144C50.7975 22.3583 50.689 21.955 50.689 21.5044C50.689 21.0593 50.7975 20.6616 51.0144 20.3111C51.2314 19.9551 51.529 19.6769 51.9073 19.4766C52.2912 19.2764 52.7195 19.1762 53.1924 19.1762C53.6319 19.1762 54.0324 19.268 54.394 19.4516C54.7612 19.6296 55.0533 19.8939 55.2702 20.2443C55.4872 20.5893 55.5957 21.0009 55.5957 21.4794L52.3663 22.0969C52.5387 22.4585 52.8809 22.6393 53.3927 22.6393ZM53.2008 20.3028C52.9282 20.3028 52.7056 20.389 52.5332 20.5614C52.3607 20.7283 52.2634 20.9703 52.2411 21.2874L54.077 20.9286C54.0213 20.7395 53.9156 20.5893 53.7598 20.478C53.6041 20.3612 53.4177 20.3028 53.2008 20.3028Z" fill="white"/>
<path d="M61.05 23.8493C60.5493 23.8493 60.1014 23.7491 59.7065 23.5489C59.3115 23.3486 59.0027 23.0704 58.7802 22.7144C58.5632 22.3583 58.4547 21.955 58.4547 21.5044C58.4547 21.0538 58.5632 20.6532 58.7802 20.3028C59.0027 19.9467 59.3115 19.6713 59.7065 19.4766C60.1014 19.2764 60.5493 19.1762 61.05 19.1762C61.5618 19.1762 62.004 19.2875 62.3768 19.51C62.7495 19.727 63.0137 20.0302 63.1695 20.4196L61.9428 21.0454C61.737 20.6393 61.4366 20.4363 61.0416 20.4363C60.7579 20.4363 60.5215 20.5308 60.3323 20.72C60.1487 20.9091 60.0569 21.1706 60.0569 21.5044C60.0569 21.8438 60.1487 22.1108 60.3323 22.3055C60.5215 22.4946 60.7579 22.5892 61.0416 22.5892C61.4366 22.5892 61.737 22.3862 61.9428 21.98L63.1695 22.6059C63.0137 22.9953 62.7495 23.3013 62.3768 23.5238C62.004 23.7408 61.5618 23.8493 61.05 23.8493Z" fill="white"/>
<path d="M68.489 19.2513V23.7742H66.9786V23.2985C66.8117 23.4765 66.6115 23.6128 66.3778 23.7074C66.1497 23.802 65.9049 23.8493 65.6435 23.8493C65.0538 23.8493 64.5837 23.6768 64.2332 23.3319C63.8883 22.987 63.7158 22.4696 63.7158 21.7798V19.2513H65.3013V21.5211C65.3013 22.172 65.5545 22.4974 66.0607 22.4974C66.3111 22.4974 66.5141 22.4112 66.6699 22.2387C66.8256 22.0607 66.9035 21.7909 66.9035 21.4293V19.2513H68.489Z" fill="white"/>
<path d="M71.8231 23.8493C71.3225 23.8493 70.8746 23.7491 70.4796 23.5489C70.0846 23.3486 69.7759 23.0704 69.5534 22.7144C69.3364 22.3583 69.2279 21.955 69.2279 21.5044C69.2279 21.0538 69.3364 20.6532 69.5534 20.3028C69.7759 19.9467 70.0846 19.6713 70.4796 19.4766C70.8746 19.2764 71.3225 19.1762 71.8231 19.1762C72.3349 19.1762 72.7772 19.2875 73.1499 19.51C73.5227 19.727 73.7869 20.0302 73.9427 20.4196L72.716 21.0454C72.5102 20.6393 72.2098 20.4363 71.8148 20.4363C71.5311 20.4363 71.2946 20.5308 71.1055 20.72C70.9219 20.9091 70.8301 21.1706 70.8301 21.5044C70.8301 21.8438 70.9219 22.1108 71.1055 22.3055C71.2946 22.4946 71.5311 22.5892 71.8148 22.5892C72.2098 22.5892 72.5102 22.3862 72.716 21.98L73.9427 22.6059C73.7869 22.9953 73.5227 23.3013 73.1499 23.5238C72.7772 23.7408 72.3349 23.8493 71.8231 23.8493Z" fill="white"/>
<path d="M80.4972 19.1762C81.0536 19.1762 81.4958 19.3431 81.824 19.6769C82.1578 20.0107 82.3247 20.5142 82.3247 21.1873V23.7742H80.7392V21.446C80.7392 21.1289 80.678 20.8952 80.5556 20.745C80.4388 20.5948 80.2719 20.5197 80.055 20.5197C79.8157 20.5197 79.6238 20.6032 79.4792 20.7701C79.3345 20.937 79.2622 21.1901 79.2622 21.5294V23.7742H77.6767V21.446C77.6767 20.8285 77.4486 20.5197 76.9924 20.5197C76.7477 20.5197 76.5529 20.6032 76.4083 20.7701C76.2637 20.937 76.1914 21.1901 76.1914 21.5294V23.7742H74.6058V19.2513H76.1162V19.727C76.2831 19.5434 76.4806 19.4071 76.7087 19.3181C76.9424 19.2235 77.1955 19.1762 77.4681 19.1762C77.7852 19.1762 78.0689 19.2346 78.3193 19.3515C78.5696 19.4683 78.7727 19.6463 78.9284 19.8855C79.1064 19.6574 79.3317 19.4822 79.6043 19.3598C79.8769 19.2374 80.1746 19.1762 80.4972 19.1762Z" fill="white"/>
<path d="M85.6796 22.6393C85.8966 22.6393 86.083 22.6087 86.2387 22.5475C86.4001 22.4863 86.5614 22.3862 86.7227 22.2471L87.5489 23.1149C87.1205 23.6045 86.4807 23.8493 85.6296 23.8493C85.1011 23.8493 84.6366 23.7491 84.236 23.5489C83.8355 23.3486 83.5239 23.0704 83.3014 22.7144C83.0844 22.3583 82.9759 21.955 82.9759 21.5044C82.9759 21.0593 83.0844 20.6616 83.3014 20.3111C83.5183 19.9551 83.816 19.6769 84.1943 19.4766C84.5781 19.2764 85.0065 19.1762 85.4794 19.1762C85.9189 19.1762 86.3194 19.268 86.681 19.4516C87.0482 19.6296 87.3402 19.8939 87.5572 20.2443C87.7742 20.5893 87.8827 21.0009 87.8827 21.4794L84.6532 22.0969C84.8257 22.4585 85.1678 22.6393 85.6796 22.6393ZM85.4877 20.3028C85.2151 20.3028 84.9926 20.389 84.8201 20.5614C84.6477 20.7283 84.5503 20.9703 84.5281 21.2874L86.3639 20.9286C86.3083 20.7395 86.2026 20.5893 86.0468 20.478C85.891 20.3612 85.7047 20.3028 85.4877 20.3028Z" fill="white"/>
<path d="M93.028 23.7742V21.3959L91.8681 23.3736H91.1922L90.0656 21.3625V23.7742H88.6387V19.2513H90.3076L91.5677 21.6129L92.9529 19.2513H94.4466L94.455 23.7742H93.028Z" fill="white"/>
<path d="M97.6777 23.9077C96.1812 23.9077 95.4329 23.2651 95.4329 21.98V19.2513H97.0101V20.6866C97.1269 20.6087 97.2827 20.5448 97.4774 20.4947C97.6777 20.4446 97.9058 20.4196 98.1617 20.4196C98.718 20.4196 99.1547 20.5614 99.4718 20.8452C99.7889 21.1233 99.9474 21.5378 99.9474 22.0885C99.9474 22.6838 99.7416 23.1372 99.3299 23.4487C98.9238 23.7547 98.3731 23.9077 97.6777 23.9077ZM100.323 19.2513H101.908V23.7742H100.323V19.2513ZM97.6777 22.8229C97.8946 22.8229 98.0588 22.7589 98.17 22.6309C98.2813 22.503 98.3369 22.3333 98.3369 22.1219C98.3369 21.9161 98.2813 21.7547 98.17 21.6379C98.0588 21.5211 97.8974 21.4627 97.686 21.4627C97.5358 21.4627 97.4023 21.4905 97.2855 21.5461C97.1686 21.6018 97.0769 21.6769 97.0101 21.7714V22.1219C97.0101 22.3389 97.0657 22.5113 97.177 22.6393C97.2883 22.7617 97.4551 22.8229 97.6777 22.8229Z" fill="white"/>
</svg>
