<svg width="19" height="35" viewBox="0 0 19 35" fill="none" xmlns="http://www.w3.org/2000/svg">
<path d="M4.08378 20.9032L8.00158 11.8796H9.31594V14.4325L6.53556 20.9032H8.60821V19.7405C8.60821 19.4574 9.08003 19.4372 9.31594 19.4625V23.0264C8.66887 23.0264 8.5745 22.8073 8.60821 22.6978V21.6868H6.15642L0.0901559 35.2348H-0.137329L1.40451 30.5587C1.40451 30.5587 0.0396037 30.0279 0.494573 28.8905C0.949543 27.753 3.67936 21.6868 3.67936 21.6868H0.494573V20.9032H4.08378Z" fill="#FF9900"/>
<path d="M14.2953 20.9032L10.3775 11.8796H9.06318V14.4325L11.8435 20.9032H9.77091V19.7405C9.77091 19.4574 9.29909 19.4372 9.06318 19.4625V23.0264C9.71024 23.0264 9.80461 22.8073 9.77091 22.6978V21.6868H12.2227L18.289 35.2348H18.5164L16.9746 30.5587C16.9746 30.5587 18.3395 30.0279 17.8845 28.8905C17.4296 27.753 14.6997 21.6868 14.6997 21.6868H17.8845V20.9032H14.2953Z" fill="#FF9900"/>
<path fill-rule="evenodd" clip-rule="evenodd" d="M9.21486 10.5654C10.6946 10.5654 11.8941 9.36586 11.8941 7.88615C11.8941 6.40643 10.6946 5.20688 9.21486 5.20688C7.73514 5.20688 6.53559 6.40643 6.53559 7.88615C6.53559 9.36586 7.73514 10.5654 9.21486 10.5654ZM9.21486 12.0314C11.5042 12.0314 13.3601 10.1755 13.3601 7.88615C13.3601 5.59677 11.5042 3.74086 9.21486 3.74086C6.92549 3.74086 5.06958 5.59677 5.06958 7.88615C5.06958 10.1755 6.92549 12.0314 9.21486 12.0314Z" fill="#333333"/>
<path d="M8.45658 0H9.97315V3.99363H8.45658V0Z" fill="#333333"/>
</svg>
